<svg width="80" height="81" viewBox="0 0 80 81" fill="none" xmlns="http://www.w3.org/2000/svg">
<path d="M39.9999 60.3793C37.8769 60.3689 36.1555 58.656 36.1345 56.5331H43.8268C43.8308 57.0473 43.7328 57.5571 43.5383 58.0331C43.0338 59.1908 42.0033 60.0352 40.7691 60.3023H40.7595H40.7306H40.696H40.6787C40.4553 60.3489 40.228 60.3746 39.9999 60.3793ZM55.3845 54.61H24.6152V50.7639L28.4614 48.8408V38.2639C28.3601 35.5506 28.9728 32.8584 30.2383 30.4562C31.498 28.2283 33.6512 26.6463 36.1537 26.11V21.9177H43.846V26.11C48.8056 27.2908 51.5383 31.6062 51.5383 38.2639V48.8408L55.3845 50.7639V54.61Z" fill="#020202"/>
</svg>
