<svg fill="none" height="160" viewBox="0 0 160 160" width="160" xmlns="http://www.w3.org/2000/svg"><g clip-rule="evenodd" fill-rule="evenodd"><path d="m68 35h-21v5h-5v6h-6v26h6v6h5v5h5v6h6v5h5v5h6v6h5v5h5v4h3 3v-4h5v-5h5v-6h6v-5h5v-5h6v-6h5v-5h5v-6h6v-26h-6v-6h-5v-5h-21v5h-6v6h-5v6h-3-3v-6h-5v-6h-6zm-21 16h-4v16h4zm4-4v4h-4v-4zm0 0v-4h4v4z" fill="#58eeef"/><path d="m63 45h-21v5h-5v6h-6v26h6v6h5v5h5v6h6v5h5v5h6v6h5v5h5v4h3 3v-4h5v-5h5v-6h6v-5h5v-5h6v-6h5v-5h5v-6h6v-26h-6v-6h-5v-5h-21v5h-6v6h-5v6h-3-3v-6h-5v-6h-6zm-21 16h-4v16h4zm4-4v4h-4v-4zm0 0v-4h4v4z" fill="#ff9bf3"/><path d="m63 38h-21v5h-5v6h-6v26h6v6h5v5h5v6h6v5h5v5h6v6h5v5h5v4h3 3v-4h5v-5h5v-6h6v-5h5v-5h6v-6h5v-5h5v-6h6v-26h-6v-6h-5v-5h-21v5h-6v6h-5v6h-3-3v-6h-5v-6h-6zm-21 16h-4v16h4zm4-4v4h-4v-4z" fill="#000"/><path d="m50 46h-4v4h-4v4h-4v16h4v-16h4v-4h4z" fill="#fff"/></g></svg>